<?xml version="1.0" standalone="no"?><!DOCTYPE svg PUBLIC "-//W3C//DTD SVG 1.1//EN" "http://www.w3.org/Graphics/SVG/1.1/DTD/svg11.dtd"><svg t="1731490992743" class="icon" viewBox="0 0 1129 1024" version="1.1" xmlns="http://www.w3.org/2000/svg" p-id="6321" xmlns:xlink="http://www.w3.org/1999/xlink" width="220.5078125" height="200"><path d="M783.448276 2.206897h-145.655173c-29.131034 0-48.551724 19.42069-48.551724 48.551724v922.482758c0 29.131034 19.42069 48.551724 48.551724 48.551724h145.655173c29.131034 0 48.551724-19.42069 48.551724-48.551724V50.758621c0-29.131034-19.42069-48.551724-48.551724-48.551724z m-24.275862 582.620689h-97.103448c-14.565517 0-24.275862-9.710345-24.275863-24.275862s9.710345-24.275862 24.275863-24.275862H759.172414c14.565517 0 24.275862 9.710345 24.275862 24.275862s-9.710345 24.275862-24.275862 24.275862z m0-145.655172h-97.103448c-14.565517 0-24.275862-9.710345-24.275863-24.275862s9.710345-24.275862 24.275863-24.275862H759.172414c14.565517 0 24.275862 9.710345 24.275862 24.275862s-9.710345 24.275862-24.275862 24.275862z m0-145.655173h-97.103448c-14.565517 0-24.275862-9.710345-24.275863-24.275862s9.710345-24.275862 24.275863-24.275862H759.172414c14.565517 0 24.275862 9.710345 24.275862 24.275862s-9.710345 24.275862-24.275862 24.275862z m0-145.655172h-97.103448c-14.565517 0-24.275862-9.710345-24.275863-24.275862s9.710345-24.275862 24.275863-24.275862H759.172414c14.565517 0 24.275862 9.710345 24.275862 24.275862S773.737931 147.862069 759.172414 147.862069zM555.255172 55.613793L414.455172 7.062069C390.17931-2.648276 361.048276 7.062069 351.337931 31.337931L11.475862 900.413793c-9.710345 24.275862 4.855172 53.406897 29.131035 63.117241l140.8 53.406897c24.275862 9.710345 53.406897-4.855172 63.117241-29.131034L584.386207 118.731034c9.710345-24.275862 0-53.406897-29.131035-63.117241zM351.337931 584.827586c-4.855172 14.565517-19.42069 19.42069-33.986207 14.565517l-92.248276-33.986206c-14.565517-4.855172-19.42069-19.42069-14.565517-33.986207 4.855172-14.565517 19.42069-19.42069 33.986207-14.565518l92.248276 33.986207c14.565517 4.855172 19.42069 19.42069 14.565517 33.986207z m53.406897-135.944827c-4.855172 9.710345-19.42069 14.565517-33.986207 9.710344l-92.248276-33.986206c-14.565517-4.855172-19.42069-19.42069-14.565517-33.986207 4.855172-14.565517 19.42069-19.42069 33.986206-14.565518l92.248276 38.84138c14.565517 4.855172 19.42069 19.42069 14.565518 33.986207z m53.406896-140.8c-4.855172 14.565517-19.42069 19.42069-33.986207 14.565517L331.917241 288.662069c-14.565517-4.855172-19.42069-19.42069-14.565517-33.986207 4.855172-9.710345 19.42069-14.565517 33.986207-9.710345l92.248276 33.986207c14.565517 4.855172 19.42069 19.42069 14.565517 29.131035z m53.406897-135.944828c-4.855172 14.565517-19.42069 19.42069-33.986207 14.565517L385.324138 152.717241c-14.565517-4.855172-19.42069-19.42069-14.565517-33.986207 4.855172-14.565517 19.42069-19.42069 33.986207-14.565517l92.248275 33.986207c14.565517 4.855172 19.42069 19.42069 14.565518 33.986207z m563.2-169.931034h-145.655173c-29.131034 0-48.551724 19.42069-48.551724 48.551724v922.482758c0 29.131034 19.42069 48.551724 48.551724 48.551724h145.655173c29.131034 0 48.551724-19.42069 48.551724-48.551724V50.758621c0-29.131034-19.42069-48.551724-48.551724-48.551724z m-24.275862 582.620689H953.37931c-14.565517 0-24.275862-9.710345-24.275862-24.275862s9.710345-24.275862 24.275862-24.275862h97.103449c14.565517 0 24.275862 9.710345 24.275862 24.275862s-9.710345 24.275862-24.275862 24.275862z m0-145.655172H953.37931c-14.565517 0-24.275862-9.710345-24.275862-24.275862s9.710345-24.275862 24.275862-24.275862h97.103449c14.565517 0 24.275862 9.710345 24.275862 24.275862s-9.710345 24.275862-24.275862 24.275862z m0-145.655173H953.37931c-14.565517 0-24.275862-9.710345-24.275862-24.275862s9.710345-24.275862 24.275862-24.275862h97.103449c14.565517 0 24.275862 9.710345 24.275862 24.275862s-9.710345 24.275862-24.275862 24.275862z m0-145.655172H953.37931c-14.565517 0-24.275862-9.710345-24.275862-24.275862s9.710345-24.275862 24.275862-24.275862h97.103449c14.565517 0 24.275862 9.710345 24.275862 24.275862s-9.710345 24.275862-24.275862 24.275862z" fill="#FFFFFF" p-id="6322"></path></svg>
