<?xml version="1.0" standalone="no"?><!DOCTYPE svg PUBLIC "-//W3C//DTD SVG 1.1//EN" "http://www.w3.org/Graphics/SVG/1.1/DTD/svg11.dtd"><svg t="1731491099576" class="icon" viewBox="0 0 1024 1024" version="1.1" xmlns="http://www.w3.org/2000/svg" p-id="7357" xmlns:xlink="http://www.w3.org/1999/xlink" width="200" height="200"><path d="M127.998061 767.988364v127.99806h767.988363V767.988364H1023.984485v198.404751a67.986364 67.986364 0 0 1-57.234527 57.56034l-0.372358 0.046545H57.59137a67.986364 67.986364 0 0 1-57.56034-57.234527l-0.046545-0.372358V767.988364zM1023.984485 352.002424v63.999031h-127.998061v63.99903H1023.984485v63.99903h-127.998061v63.99903H1023.984485v63.999031H831.987394V352.002424z m-831.987394 0v63.999031H76.798836l-12.799806 12.799806v166.397478l12.799806 12.799806h115.198255v63.999031H51.199224l-51.199224-51.199224V403.201648l51.199224-51.199224z m236.788655 0l51.199224 51.199224v217.596704l-51.199224 51.199224H307.195346l-51.199225-51.199224V403.201648l51.199225-51.199224z m288.003394 0l51.199224 51.199224v217.596704l-51.199224 51.199224H543.999515V352.002424z m-313.587492 63.999031H332.794958l-12.799806 12.799806v166.397478l12.799806 12.799806h70.40669l12.799807-12.799806V428.801261z m287.987879 0h-83.206496v191.99709h83.206496l12.799806-12.799806V428.801261zM959.985455 0a68.234603 68.234603 0 0 1 63.952485 57.203497l0.046545 0.387873v198.389236h-127.998061v-127.99806H127.998061v127.99806H0V63.983515A68.234603 68.234603 0 0 1 57.203497 0.03103l0.387873-0.046545h902.394085z" fill="#D2D5DC" p-id="7358"></path></svg>